<svg width="14" height="14" viewBox="0 0 14 14" fill="none" xmlns="http://www.w3.org/2000/svg">
<g id="SVG" clip-path="url(#clip0_55_60925)">
<path id="Vector" d="M5.07359 10.569C4.97018 10.497 4.87144 10.4186 4.77796 10.3341C4.36082 9.9786 4.02825 9.53448 3.80447 9.03414C3.60126 8.56662 3.48157 8.06606 3.45044 7.55391C3.41168 7.036 3.46434 6.51531 3.60601 6.01564C3.75539 5.46701 4.02875 4.96 4.40503 4.53371C4.70341 4.21669 5.05615 3.95567 5.44655 3.76301C5.84697 3.56484 6.28314 3.44918 6.72914 3.42292C7.57683 3.39093 8.39724 3.6644 9.03686 4.19185C8.6852 3.8891 8.27746 3.65843 7.83683 3.51294C7.35622 3.3524 6.83934 3.31229 6.33142 3.39581C5.8235 3.47932 5.34034 3.68346 4.9243 3.99108C4.51441 4.29723 4.17582 4.68867 3.93191 5.13839C3.69971 5.55792 3.53847 6.01295 3.45469 6.48508C3.36573 6.94694 3.34621 7.41951 3.39679 7.88714C3.4419 8.36019 3.5624 8.82298 3.7537 9.25797C3.96338 9.7278 4.26713 10.1497 4.64619 10.4975C4.13983 10.3165 3.71819 9.9548 3.46223 9.48187C3.15884 8.8865 2.98455 8.2338 2.95074 7.56645C2.91707 6.9085 3.01032 6.25022 3.22542 5.62752L3.44505 5.69122C3.56472 5.24369 3.76629 4.8222 4.03956 4.44812C4.33387 4.04937 4.71065 3.71873 5.14426 3.47873C5.57787 3.23873 6.05812 3.095 6.55228 3.05733C7.02423 3.02521 7.49775 3.09018 7.9436 3.24822C8.744 3.54044 9.4412 4.06083 9.94902 4.74504C10.4748 5.41952 10.8187 6.21759 10.9479 7.06295C10.9675 6.9308 11.0214 7.00223 11.0622 7.02736C10.9784 6.15326 10.646 5.32145 10.1043 4.63031C9.57908 3.93551 8.86287 3.40872 8.04317 3.11427C7.58481 2.95747 7.10019 2.89192 6.61665 2.92131C6.1209 2.95655 5.63724 3.09071 5.19418 3.31589C4.73932 3.54561 4.33472 3.86356 4.00398 4.25123C3.69223 4.62022 3.44402 5.03849 3.26951 5.48892C3.5349 4.76437 3.99613 4.12766 4.60188 3.64964C5.24187 3.15238 6.02439 2.87331 6.83462 2.8534C7.59046 2.84925 8.33165 3.06181 8.97041 3.46593C9.54536 3.8289 10.0353 4.31155 10.4069 4.88098C10.7895 5.45774 11.0362 6.11384 11.1283 6.79982C11.2321 7.57804 11.0882 8.36917 10.717 9.06098C10.6189 9.23966 10.5066 9.4101 10.381 9.57063C10.2511 9.72993 10.1015 9.88286 9.95537 10.0312C9.80925 10.1795 9.62948 10.2888 9.46111 10.4117C9.29296 10.535 9.10683 10.609 8.92547 10.7017C8.22065 11.0067 7.44906 11.1247 6.68531 11.0442C6.5609 11.0291 6.37359 11.0022 6.18575 10.9697C5.99791 10.9372 5.81595 10.874 5.69702 10.8378C5.24133 10.5961 4.82207 10.2912 4.45165 9.93224C4.06835 9.54999 3.77777 9.08496 3.60223 8.57289C3.78949 8.64454 3.92736 8.3879 4.09555 8.36928C4.18225 8.35392 4.2731 8.39001 4.37286 8.51978C4.40006 8.55781 4.42479 8.59739 4.44682 8.63816C4.48569 8.68462 4.52207 8.73264 4.55586 8.78277L4.67575 8.97464L4.85235 9.18807L5.02321 9.02431C4.97842 8.95212 4.93793 8.87734 4.90194 8.80038C4.87589 8.72331 4.85369 8.64531 4.83603 8.56594C4.81726 8.5359 4.81841 8.49293 4.81192 8.45817L4.81613 8.35089C4.81847 8.28702 4.82405 8.2236 4.83355 8.16018C4.84915 8.07034 4.88475 7.98422 4.93741 7.90809C4.99006 7.83195 5.05923 7.76809 5.13891 7.72026C5.19636 7.68091 5.26536 7.66202 5.33484 7.66662C5.36889 7.67034 5.40225 7.67875 5.43399 7.69163C5.53659 7.70957 5.63207 7.75308 5.71143 7.81797C5.77371 7.85079 5.83222 7.8894 5.88584 7.93353C6.03635 8.05959 6.20545 8.16274 6.38745 8.24013C6.63987 8.35455 6.91113 8.42168 7.18778 8.43821C7.46296 8.45487 7.73783 8.40069 7.9861 8.28083L8.0596 8.2349C8.08389 8.22267 8.10721 8.2081 8.12886 8.19163L8.19811 8.14835C8.21535 8.13028 8.23147 8.11118 8.24639 8.09116C8.31532 8.01794 8.36633 7.92973 8.39539 7.83346C8.44752 7.68493 8.46799 7.52819 8.45532 7.37347C8.43953 7.17993 8.39552 6.99076 8.32416 6.81131C8.15811 6.40466 7.90538 6.03912 7.58359 5.74015C7.39384 5.55178 7.15143 5.42538 6.88835 5.37766C6.64561 5.3442 6.39865 5.393 6.18688 5.51627C5.94158 5.67062 5.74487 5.89113 5.61942 6.1524C5.46313 6.47122 5.36289 6.81457 5.32309 7.1674C5.31547 7.31746 5.32996 7.46783 5.36612 7.61367C5.40546 7.76836 5.46077 7.91854 5.53117 8.0618C5.65342 8.24439 5.75565 8.43963 5.83608 8.64412C5.86046 8.7075 5.86195 8.7783 5.83955 8.84388C5.81715 8.90947 5.77281 8.96666 5.71375 9.00503C5.04919 8.43765 4.79882 7.32697 5.04319 6.40732C5.10426 6.14806 5.21823 5.90193 5.3776 5.68443C5.53698 5.46692 5.73897 5.28224 5.97077 5.14132C6.18088 5.02747 6.41407 4.96273 6.65281 4.95196C6.88534 4.95061 7.11359 5.00058 7.32068 5.09768C7.11744 4.99057 6.89199 4.93241 6.6623 4.92784C6.41966 4.93055 6.1813 4.99216 5.96772 5.10736C5.73146 5.25057 5.52678 5.44038 5.36709 5.66446C5.20741 5.88855 5.09728 6.14161 5.04262 6.40718C4.77533 7.32004 4.95622 8.43826 5.61548 9.07185C5.55879 9.09777 5.50785 9.13475 5.46564 9.18061C5.42343 9.22648 5.3908 9.28031 5.36966 9.33895L5.41215 9.37234C5.44408 9.40299 5.47981 9.43029 5.51845 9.45282C5.60324 9.51382 5.69298 9.5678 5.7871 9.61463C6.02398 9.88915 6.13721 10.0758 6.086 10.2518C6.03498 10.3528 5.95729 10.4378 5.86137 10.4978C5.76544 10.5577 5.65494 10.5902 5.54184 10.5918C5.3846 10.5995 5.22699 10.5917 5.07129 10.5685L5.07359 10.569Z" fill="#E6ACA6"/>
</g>
<defs>
<clipPath id="clip0_55_60925">
<rect width="10" height="10" fill="white" transform="translate(0 5.51999) rotate(-32)"/>
</clipPath>
</defs>
</svg>
