<svg width="34" height="34" viewBox="0 0 34 34" fill="none" xmlns="http://www.w3.org/2000/svg">
<g id="SVG" clip-path="url(#clip0_55_60929)">
<path id="Vector" d="M11.9414 10.4349C12.0739 10.5779 12.2158 10.7118 12.3662 10.8357C13.5636 11.7843 15.1972 12.2021 16.8389 12.1856C17.6768 12.1818 18.5097 12.0578 19.3123 11.8173C19.5179 11.7574 19.7166 11.684 19.9172 11.6082L20.0657 11.5448C20.1515 11.511 20.2355 11.4732 20.3169 11.4306L20.8211 11.1565C21.1775 10.9308 21.559 10.6582 21.94 10.3892L22.4872 10.0234L22.7428 9.83704L22.8809 9.77669L22.5328 10.3736C22.4087 10.5945 22.2745 10.8213 22.1582 11.0331L21.9814 11.3573L21.8919 11.5185C21.8634 11.5664 21.8373 11.6162 21.8162 11.6678L21.571 12.1996C21.5275 12.351 21.492 12.4975 21.4524 12.6444C21.4281 12.7324 21.4299 12.7613 21.4188 12.812L21.3998 12.9528C21.3709 13.1409 21.355 13.3309 21.3523 13.5212C21.3011 14.9964 21.8268 16.5588 22.5628 17.9701C23.2927 19.3524 24.2213 20.6201 25.3188 21.733L24.8229 22.1981L25.3055 21.7179C23.953 20.3297 22.8674 18.7046 22.1029 16.9237C21.7153 16.0325 21.4699 15.0861 21.3755 14.119C21.3327 13.6396 21.3541 13.1567 21.4394 12.6831L21.513 12.3963C21.5355 12.2886 21.5711 12.184 21.6192 12.0846L21.8579 11.5683L21.9717 11.3596L22.4497 10.5036L22.7003 10.0651L22.9166 9.69832L22.775 9.76749L22.5195 9.95382L21.9926 10.3328C21.6088 10.6035 21.2336 10.8656 20.8682 11.1112L20.3641 11.3853C20.2822 11.4305 20.1975 11.4707 20.1105 11.5054L19.9414 11.5763C19.7447 11.6556 19.5443 11.7252 19.3407 11.785C18.5385 12.0241 17.706 12.1459 16.8689 12.1467C15.226 12.1506 13.5928 11.7044 12.431 10.774C13.1079 11.1761 13.8419 11.4775 14.6112 11.67C15.712 11.9598 16.8593 12.0295 17.9872 11.875C18.5477 11.7997 19.1011 11.6661 19.6387 11.475L19.8374 11.4015L20.0955 11.2931C20.2376 11.2295 20.3746 11.1565 20.5079 11.0738L20.9253 10.8393C21.0042 10.7919 21.0812 10.7391 21.1552 10.6836L22.8359 9.47398L22.5853 9.77274L22.9721 9.48904L23.0676 9.42035L23.1367 9.37385L23.2778 9.28342L22.1616 11.2344C22.1174 11.3135 22.0579 11.4124 22.0279 11.4746L21.9318 11.6747L21.7408 12.0797C21.7124 12.1342 21.6916 12.1924 21.6793 12.2526L21.6388 12.4144L21.5487 12.7396C21.4752 13.2036 21.463 13.6753 21.5124 14.1425C21.6142 15.093 21.8604 16.0224 22.2426 16.8987C22.9943 18.6596 24.0637 20.2672 25.3974 21.641L24.7275 22.3086C23.1629 20.6511 20.629 20.0274 18.2501 20.5102C18.4797 20.4901 18.3463 20.5309 18.3037 20.5552C18.263 20.5772 18.2838 20.579 18.6871 20.5245C18.2868 20.5894 18.2669 20.5726 18.3037 20.5552C20.6652 20.1336 23.1359 20.7564 24.6742 22.3722L25.4661 21.5825C24.1286 20.2235 23.0564 18.627 22.3044 16.8748C21.9274 16.0073 21.6866 15.0866 21.5908 14.1456C21.5516 13.6849 21.5714 13.2212 21.6496 12.7655L21.7351 12.4365L21.7817 12.2628C21.7949 12.1975 21.8181 12.1346 21.8506 12.0765L22.065 11.6389L22.1742 11.4185C22.2099 11.348 22.2778 11.2405 22.3294 11.148L23.6265 8.93635L22.3414 11.1072L22.1862 11.3777L22.0789 11.5958L21.8648 12.0284L21.8118 12.1366L21.7895 12.2223L21.7426 12.3918L21.6594 12.7228C21.5781 13.1767 21.5582 13.6394 21.6002 14.0986C21.6959 15.0392 21.9373 15.9592 22.3157 16.8255C23.0741 18.5775 24.1517 20.1732 25.4935 21.5311L24.6433 22.3763C23.2564 20.9162 21.107 20.2823 19.011 20.4777C17.9462 20.5722 16.9096 20.8706 15.9576 21.3567C15.8359 21.4119 15.7188 21.477 15.6077 21.5513L15.2628 21.7632C15.1463 21.8289 15.0367 21.9062 14.9359 21.9941L14.6691 22.1984L14.5056 22.3249L14.3378 22.4844L14.1601 22.6681C14.0959 22.7244 14.0365 22.7858 13.9824 22.8519L12.7811 24.2836L12.0411 25.1888L11.3462 26.0481L12.2501 23.2533L12.5003 22.5025C12.5777 22.2515 12.6697 21.9879 12.7273 21.7792L12.8067 21.445C12.8333 21.3355 12.8484 21.232 12.8696 21.1258L12.9506 20.6885C13.0826 19.8202 13.1317 18.945 13.0975 18.0757C13.0779 17.8595 13.0702 17.5279 13.0234 17.2119C12.9766 16.8959 12.9494 16.5611 12.896 16.3479C12.789 15.4803 12.576 14.629 12.2618 13.8133C11.9599 12.9986 11.5576 12.2303 11.063 11.5254C11.2346 11.6694 11.1418 11.3318 11.2307 11.3255C11.3196 11.3191 11.6935 11.6172 12.4369 13.2422L12.5355 13.1931C11.8535 11.523 11.1236 10.498 11.014 10.1384C10.9556 9.97321 11.0369 9.96183 11.2842 10.1929C11.4587 10.3558 11.6234 10.5289 11.7775 10.7112C11.8763 10.8424 11.98 10.9817 12.0953 11.1306C12.2259 11.3 12.3444 11.4784 12.45 11.6645C12.9352 12.4398 13.3269 13.2736 13.6165 14.1497C13.9441 15.1069 14.1641 16.0975 14.2724 17.1034C14.3758 18.1789 14.3592 19.2626 14.2229 20.3345L14.1695 20.7466L14.1136 21.0404L14.0981 21.0992L14.0823 21.1538L14.1929 21.0221C14.3952 20.8603 14.6081 20.7139 14.831 20.5837C15.2512 20.324 15.6898 20.0968 16.1416 19.9054L16.8305 19.6506C17.0602 19.5667 17.2992 19.523 17.5423 19.4464C18.4798 19.2133 19.4482 19.1298 20.4117 19.1989C21.3662 19.2582 22.3033 19.4811 23.1822 19.858C24.0604 20.2489 24.8506 20.8023 25.5163 21.4915L24.5966 22.4102L24.4434 22.249C23.0734 20.7825 21.9743 19.0846 21.1974 17.2343C20.7816 16.2658 20.5227 15.2373 20.4304 14.1875C20.4103 13.9174 20.4049 13.6453 20.4144 13.3726L20.4506 12.9577L20.5093 12.575C20.522 12.5148 20.5396 12.4558 20.5621 12.3986C20.5839 12.3477 20.6093 12.2972 20.6377 12.2493L20.6319 12.2562L20.5544 12.3034C20.4941 12.3334 20.4322 12.3604 20.3691 12.3842L20.1627 12.4669L19.9307 12.5489C19.7783 12.6029 19.6239 12.651 19.4677 12.6931C19.1604 12.7818 18.8479 12.8514 18.532 12.9013C17.3922 13.1102 16.2258 13.13 15.0796 12.9599C14.1704 12.8397 13.2963 12.5305 12.5138 12.0522C11.9418 11.6728 11.9668 11.5932 12.0921 11.5979C13.382 12.439 14.8867 12.8908 16.4265 12.8995C17.2019 12.9203 17.9769 12.8484 18.7353 12.6855C19.1144 12.6054 19.4891 12.4995 19.856 12.3688C19.9473 12.3331 20.0405 12.303 20.1337 12.265L20.3527 12.172C20.4456 12.1298 20.5357 12.0893 20.6259 12.0409C20.716 11.9926 20.812 11.9373 20.9059 11.8752L21.0315 11.7847L21.0668 11.7426L21.0135 11.8061C20.9049 11.9931 20.8216 12.1934 20.7659 12.3999L20.7259 12.5752L20.6752 12.8891C20.6489 13.1041 20.634 13.3203 20.6304 13.5368C20.6234 14.3814 20.7451 15.2221 20.9912 16.03C21.4795 17.5924 22.2177 19.0653 23.1771 20.3915C22.2353 19.0731 21.5072 17.6145 21.0195 16.0694C20.7691 15.2611 20.6416 14.4197 20.6414 13.5735C20.6409 13.3563 20.6615 13.1373 20.6821 12.9183L20.7316 12.5917L20.7758 12.4083C20.8293 12.1921 20.9161 11.9829 21.032 11.7903L21.0853 11.7268L21.05 11.7689C21.005 11.7991 20.9632 11.8318 20.9179 11.8578C20.8287 11.9191 20.7359 11.9751 20.6401 12.0255C20.551 12.071 20.4605 12.114 20.3689 12.1543L20.1476 12.2453C20.0586 12.2829 19.9654 12.3131 19.8738 12.3445C19.5094 12.4756 19.1358 12.5797 18.7561 12.656C18.0097 12.8135 17.247 12.881 16.4845 12.8568C14.973 12.8458 13.4956 12.406 12.224 11.5885C12.3501 11.6016 12.4664 11.6077 12.348 11.4641C12.348 11.4641 12.1604 11.3392 11.9378 11.1642C11.7188 10.9866 11.5161 10.7898 11.332 10.5763C11.1372 10.3214 10.9871 10.0336 10.8856 9.72522C10.8336 9.52889 10.8342 9.43798 10.871 9.42057C10.9078 9.40315 11.143 9.64876 11.4317 9.93936C11.586 10.1211 11.7561 10.2886 11.941 10.4385L11.9414 10.4349Z" fill="#AA706A"/>
</g>
<defs>
<clipPath id="clip0_55_60929">
<rect width="24" height="24" fill="white" transform="translate(0 18.4791) rotate(-50)"/>
</clipPath>
</defs>
</svg>
