<svg width="30" height="30" viewBox="0 0 30 30" fill="none" xmlns="http://www.w3.org/2000/svg">
<g id="SVG" clip-path="url(#clip0_55_60933)">
<path id="Vector" d="M6.52617 17.197C6.54374 17.2769 6.56722 17.3554 6.5964 17.4319C6.75043 17.801 6.98896 18.1279 7.29247 18.3883C7.60188 18.6594 7.96373 18.8625 8.35587 18.9859C8.85909 19.1368 9.39258 19.1562 9.90543 19.0423C10.0144 19.024 10.1218 18.9885 10.2324 18.9602C10.457 18.8917 10.6751 18.8038 10.8845 18.6976C11.2014 18.5528 11.4876 18.3485 11.7275 18.0959C11.8505 17.9687 11.9602 17.8292 12.055 17.6797L12.0931 17.6248L12.1241 17.5675L12.1867 17.4521C12.2093 17.4128 12.2287 17.372 12.2449 17.3296L12.3009 17.203C12.5856 16.5098 12.656 15.6471 12.7313 14.7679C12.665 15.288 12.599 15.7832 12.4986 16.2323C12.4109 16.6499 12.2647 17.0515 12.0645 17.4261C11.873 17.7646 11.6216 18.0642 11.3221 18.3109C11.0158 18.56 10.6689 18.7546 10.2967 18.8863C9.94026 19.0144 9.56196 19.0704 9.18335 19.052C8.82859 19.0365 8.48149 18.9451 8.16431 18.784C7.53105 18.4674 7.01777 17.8894 6.83485 17.2893C7.1526 17.3789 7.44372 17.4621 7.67564 17.6567C7.80571 17.7875 7.94894 17.9054 8.10196 18.0076C8.25331 18.1024 8.41402 18.1814 8.58156 18.2432C8.74175 18.2965 8.90731 18.332 9.07527 18.3491C9.25318 18.3584 9.43158 18.3497 9.60774 18.323L9.69167 18.679C10.2555 18.4816 10.7689 18.1625 11.1955 17.7444C11.3432 17.5955 11.4754 17.432 11.5901 17.2565C11.6286 17.1991 11.6632 17.1392 11.6936 17.0772C11.8492 16.7806 11.9675 16.4659 12.0458 16.1402C12.1411 15.7382 12.2122 15.3307 12.2589 14.9198C12.3151 14.4758 12.364 13.9983 12.4226 13.4832C12.4831 12.932 12.5781 12.3846 12.7054 11.8449L12.8213 11.4099L12.9761 10.9573C13.032 10.8077 13.0993 10.6608 13.1578 10.5135C13.217 10.3667 13.2943 10.2283 13.3671 10.0803C13.2294 10.2103 13.2211 10.08 13.1916 10.013C13.1662 9.95625 13.1186 9.95172 12.9486 10.2374C13.1198 9.95161 13.1662 9.95625 13.1916 10.013C13.0238 10.2912 12.875 10.5804 12.7463 10.8786C12.6862 11.0292 12.6279 11.1791 12.5699 11.3326L12.4328 11.775C12.2873 12.3176 12.1831 12.8705 12.121 13.4289C12.0592 13.9436 12.0208 14.4208 11.9785 14.8593C11.9445 15.2591 11.8893 15.6571 11.8125 16.0507C11.7529 16.362 11.6559 16.6649 11.5238 16.953C11.498 17.0136 11.4671 17.0722 11.4317 17.1281C11.4017 17.1829 11.3683 17.2349 11.3305 17.2854C11.2947 17.3376 11.2562 17.3875 11.2144 17.4347C10.8193 17.8946 10.2785 18.2051 9.68216 18.3146C9.78232 18.2936 9.88117 18.2667 9.97819 18.2341L10.1255 18.1783C10.1744 18.1623 10.2203 18.1334 10.2682 18.1131C10.4568 18.0221 10.6338 17.9086 10.7951 17.775C11.028 17.5895 11.2199 17.3577 11.3585 17.0941L11.3941 17.0326L11.4249 16.9591C11.4455 16.9101 11.4701 16.8645 11.4899 16.8137C11.5745 16.5819 11.6401 16.3435 11.6859 16.1009C11.7358 15.8264 11.7783 15.532 11.8091 15.2026C11.8399 14.8732 11.8667 14.5256 11.8971 14.1422L11.9234 13.8536L11.9522 13.5579C11.9764 13.3521 11.9975 13.1527 12.0331 12.9347C12.0681 12.7174 12.1057 12.5011 12.1496 12.2786C12.1739 12.1665 12.2028 12.0572 12.2308 11.9367L12.2743 11.7665C12.2904 11.7092 12.31 11.6491 12.3279 11.591C12.3648 11.4735 12.3995 11.3587 12.44 11.2396L12.583 10.8799C12.6289 10.7585 12.688 10.6459 12.7431 10.5299C12.7994 10.4138 12.8531 10.2967 12.9201 10.1896C13.1709 9.74764 13.4661 9.33246 13.8011 8.95045C14.1399 8.57355 14.5149 8.23097 14.9209 7.92769C15.7645 7.29958 16.7409 6.87316 17.775 6.68115C18.3206 6.58066 18.8773 6.55514 19.4298 6.60532L19.6431 6.6233C19.713 6.63389 19.7827 6.64518 19.8523 6.65717C19.9911 6.68229 20.1315 6.70416 20.2662 6.73834C20.4009 6.77252 20.5358 6.8104 20.6696 6.84838C20.7372 6.86551 20.8038 6.88665 20.8689 6.91168L21.0634 6.98348C21.1514 7.01739 21.2651 7.05341 21.3772 7.11316L21.748 7.29065C21.8733 7.35236 21.9915 7.42648 22.1032 7.48937C22.2019 7.54415 22.2978 7.60396 22.3903 7.66859C22.9208 8.17991 23.3888 8.75197 23.7865 9.37242C24.1866 9.99026 24.4906 10.6652 24.6883 11.3741C24.5544 11.3132 24.4195 11.3759 24.2897 11.4531C24.1692 11.5382 24.0327 11.5973 23.8883 11.6292C23.8207 11.6378 23.7522 11.6237 23.6935 11.5891C23.6587 11.5669 23.627 11.5402 23.599 11.5098C23.5607 11.4742 23.526 11.4347 23.4956 11.3922C23.4117 11.2654 23.3351 11.134 23.2661 10.9986C23.2204 10.9169 23.1801 10.8179 23.1227 10.7149C23.0652 10.6119 23.0072 10.4958 22.9383 10.3683L22.6338 10.572C22.8113 10.9893 22.8426 11.4543 22.7243 11.8907C22.6995 11.9692 22.6683 12.0459 22.6308 12.1206C22.596 12.1851 22.5536 12.2466 22.5043 12.3012C22.4256 12.395 22.3279 12.4707 22.2149 12.5209C22.1461 12.5622 22.0686 12.5867 21.9886 12.5924C21.9086 12.5981 21.8284 12.5849 21.7544 12.5538C21.6514 12.5295 21.5532 12.4884 21.4637 12.432C21.4436 12.4151 21.4255 12.3999 21.3984 12.3886C21.3726 12.3772 21.3514 12.3561 21.3276 12.3396C21.2812 12.3051 21.2369 12.268 21.1949 12.2282C21.146 12.1871 21.1016 12.1407 21.0606 12.0915C20.849 11.8454 20.6184 11.6153 20.3706 11.4028C20.2304 11.2909 20.0817 11.189 19.9266 11.0989C19.8494 11.0466 19.7648 11.0167 19.6845 10.9722C19.6442 10.9521 19.601 10.941 19.5596 10.9223C19.5194 10.9022 19.4778 10.8878 19.4351 10.876C19.3937 10.8641 19.3516 10.8517 19.3098 10.8348C19.2687 10.8198 19.2271 10.8203 19.1853 10.8103C19.1638 10.806 19.144 10.7996 19.1231 10.7959L19.0624 10.7906C19.0199 10.7869 18.9806 10.7779 18.9395 10.7765C18.7544 10.7698 18.5701 10.7853 18.3889 10.8228C17.9895 10.9149 17.6231 11.1134 17.3294 11.3981C17.1173 11.5937 16.9325 11.8167 16.7813 12.0622C16.7629 12.0936 16.7413 12.1234 16.7228 12.1536L16.6763 12.2471C16.6606 12.2796 16.6407 12.3086 16.6273 12.3396L16.5843 12.4372C16.5708 12.4682 16.5544 12.5 16.5412 12.5335L16.5078 12.6277C16.4965 12.6616 16.4827 12.6889 16.4688 12.7286L16.4385 12.8369C16.3377 13.1947 16.2604 13.5587 16.2072 13.9266C16.1389 14.3537 16.0748 14.8412 15.9784 15.3795L15.8703 15.9547C15.829 16.1633 15.7926 16.3578 15.7414 16.5753C15.6446 17.0309 15.5155 17.4788 15.3556 17.9158L15.2203 18.2649L15.0586 18.6169C15.0072 18.7325 14.9399 18.8509 14.8732 18.9685C14.8065 19.0861 14.7403 19.2031 14.6642 19.3128C14.3757 19.7547 14.0314 20.1577 13.64 20.5117C12.8845 21.2038 11.9734 21.7036 10.9838 21.9689C10.4949 22.0955 9.9912 22.1594 9.48581 22.1614C8.98694 22.1597 8.49009 22.0889 8.00971 21.9508C7.83913 21.9036 7.65151 21.8604 7.46026 21.797C7.36436 21.7657 7.26395 21.7397 7.16515 21.7036L6.86426 21.5939C6.45441 21.4385 6.06151 21.2424 5.69013 21.0085C4.95775 20.5527 4.44143 19.947 4.33608 19.5947C4.14936 19.1216 4.31444 19.0066 4.53212 18.9391C5.09707 19.7911 5.87867 20.4773 6.79662 20.9272C7.25888 21.1543 7.75045 21.3162 8.25724 21.4081C8.76794 21.4997 9.28941 21.515 9.8046 21.4534C10.4316 21.3964 11.0449 21.236 11.6195 20.9785C12.2 20.7206 12.7367 20.3736 13.2101 19.95C13.7014 19.5122 14.1126 18.9922 14.4253 18.4133C14.7164 17.858 14.9414 17.2701 15.093 16.6606C14.9252 17.2531 14.694 17.8257 14.4034 18.3686C14.3301 18.5104 14.2349 18.6511 14.1521 18.7906C14.068 18.929 13.9604 19.0558 13.8638 19.1872C13.7678 19.318 13.6557 19.4352 13.5475 19.5534L13.3793 19.7252C12.8694 20.2261 12.2776 20.6363 11.6296 20.9379C11.0533 21.2082 10.4375 21.3825 9.8046 21.4534C9.29154 21.5027 8.77483 21.4746 8.26834 21.3717C7.53926 21.2179 6.8486 20.919 6.23754 20.4926C5.62649 20.0662 5.10754 19.5211 4.71165 18.8899C4.90922 18.8409 5.10147 18.7738 5.18716 18.5818L5.13564 18.5112C5.10498 18.466 5.067 18.401 5.02098 18.3293C4.92734 18.189 4.84227 18.0046 4.77847 17.8859C4.77599 17.7582 4.78718 17.6305 4.81225 17.5054C4.8348 17.4106 4.87309 17.3204 4.92553 17.2383C5.00433 17.1124 5.12842 17.0215 5.27224 16.9844C5.4113 16.9508 5.55569 16.9453 5.69689 16.9684C5.84158 16.9906 5.98475 17.0219 6.12555 17.0619L6.31498 17.1329C6.38325 17.1536 6.45656 17.1752 6.52617 17.197Z" fill="#E6ACA6"/>
</g>
<defs>
<clipPath id="clip0_55_60933">
<rect width="21" height="21" fill="white" transform="translate(29.5854 13.7058) rotate(130)"/>
</clipPath>
</defs>
</svg>
